<?xml version="1.0" encoding="utf-8"?>
<!-- Generator: Adobe Illustrator 26.3.1, SVG Export Plug-In . SVG Version: 6.00 Build 0)  -->
<svg version="1.1" id="Layer_1" xmlns="http://www.w3.org/2000/svg" xmlns:xlink="http://www.w3.org/1999/xlink" x="0px" y="0px"
	 viewBox="0 0 238.48 100" style="enable-background:new 0 0 238.48 100;" xml:space="preserve">
<style type="text/css">
	.st0{fill:#2EA6DF;}
	.st1{fill:#48B591;stroke:#FFFFFF;stroke-miterlimit:10;}
</style>
<g>
	<polygon class="st0" points="48.13,95.76 5.3,95.76 5.3,40.38 41.18,19.77 41.18,83.52 36.79,83.52 36.79,27.36 9.7,42.92 
		9.7,91.37 43.72,91.37 43.3,4.12 55.78,9.66 59.62,91.16 62.92,91.14 62.92,11.16 80.04,20.59 80.04,33.2 75.64,33.2 75.64,23.19 
		67.31,18.59 67.31,95.49 55.43,95.59 51.52,12.58 47.73,10.9 	"/>
</g>
<g>
	<rect x="13.96" y="49.86" class="st1" width="8.04" height="8.04"/>
</g>
<g>
	<rect x="24.05" y="49.86" class="st0" width="8.04" height="8.04"/>
</g>
<g>
	<rect x="13.96" y="60.07" class="st0" width="8.04" height="8.04"/>
</g>
<g>
	<rect x="24.05" y="60.07" class="st1" width="8.04" height="8.04"/>
</g>
<g>
	<rect x="13.96" y="70.12" class="st1" width="8.04" height="8.04"/>
</g>
<g>
	<rect x="24.05" y="70.12" class="st0" width="8.04" height="8.04"/>
</g>
<g>
	<polygon class="st0" points="80.08,95.58 70.85,95.58 70.85,91.18 75.68,91.18 75.68,82.33 80.08,82.33 	"/>
</g>
<g>
	<path class="st0" d="M87.19,38.58V53.1h-4.02l-5.52-6.6v6.6h-4.77V38.58h4.02l5.52,6.6v-6.6H87.19z"/>
	<path class="st0" d="M101.63,49.41v3.69H89.56V38.58h11.8v3.69h-6.99v1.7h6.14v3.53h-6.14v1.91H101.63z"/>
	<path class="st0" d="M113.13,45.45h4.25v6.14c-1.76,1.2-4.19,1.85-6.33,1.85c-4.69,0-8.11-3.13-8.11-7.59
		c0-4.46,3.42-7.59,8.22-7.59c2.86,0,5.17,1,6.64,2.8l-3.13,2.76c-0.91-1.06-1.97-1.6-3.26-1.6c-2.16,0-3.53,1.39-3.53,3.63
		c0,2.18,1.37,3.63,3.46,3.63c0.6,0,1.18-0.1,1.78-0.35V45.45z"/>
	<path class="st0" d="M118.89,45.84c0-4.4,3.46-7.59,8.2-7.59c4.73,0,8.19,3.19,8.19,7.59c0,4.4-3.46,7.59-8.19,7.59
		C122.36,53.43,118.89,50.24,118.89,45.84z M130.35,45.84c0-2.26-1.45-3.63-3.26-3.63c-1.81,0-3.26,1.37-3.26,3.63
		c0,2.26,1.45,3.63,3.26,3.63C128.89,49.47,130.35,48.1,130.35,45.84z M127.65,34.08h4.46l-4.09,3.32h-3.11L127.65,34.08z"/>
	<path class="st0" d="M136.49,45.84c0-4.46,3.42-7.59,8.09-7.59c2.84,0,5.08,1.04,6.51,2.9L148,43.91c-0.85-1.08-1.87-1.7-3.17-1.7
		c-2.03,0-3.4,1.41-3.4,3.63c0,2.22,1.37,3.63,3.4,3.63c1.31,0,2.32-0.62,3.17-1.7l3.09,2.76c-1.43,1.87-3.67,2.9-6.51,2.9
		C139.91,53.43,136.49,50.3,136.49,45.84z"/>
	<path class="st0" d="M152.5,38.58h4.9V53.1h-4.9V38.58z"/>
	<path class="st0" d="M159.18,45.84c0-4.4,3.46-7.59,8.2-7.59s8.19,3.19,8.19,7.59c0,4.4-3.46,7.59-8.19,7.59
		S159.18,50.24,159.18,45.84z M170.64,45.84c0-2.26-1.45-3.63-3.26-3.63c-1.81,0-3.26,1.37-3.26,3.63c0,2.26,1.45,3.63,3.26,3.63
		C169.18,49.47,170.64,48.1,170.64,45.84z"/>
	<path class="st0" d="M176.44,51.94l1.58-3.57c1.37,0.81,3.19,1.33,4.79,1.33c1.39,0,1.89-0.29,1.89-0.79
		c0-1.83-8.03-0.35-8.03-5.77c0-2.7,2.26-4.9,6.76-4.9c1.95,0,3.96,0.41,5.48,1.27l-1.47,3.55c-1.43-0.73-2.78-1.08-4.05-1.08
		c-1.43,0-1.89,0.41-1.89,0.91c0,1.74,8.03,0.29,8.03,5.64c0,2.66-2.26,4.9-6.76,4.9C180.35,53.43,177.9,52.83,176.44,51.94z"/>
	<path class="st0" d="M197.21,38.58h7.16c4.85,0,8.19,2.76,8.19,7.26c0,4.5-3.34,7.26-8.19,7.26h-7.16V38.58z M204.16,49.28
		c2.05,0,3.46-1.22,3.46-3.44c0-2.22-1.41-3.44-3.46-3.44h-2.05v6.89H204.16z"/>
	<path class="st0" d="M213.77,45.84c0-4.4,3.46-7.59,8.2-7.59c4.73,0,8.19,3.19,8.19,7.59c0,4.4-3.46,7.59-8.19,7.59
		C217.23,53.43,213.77,50.24,213.77,45.84z M225.22,45.84c0-2.26-1.45-3.63-3.26-3.63c-1.81,0-3.26,1.37-3.26,3.63
		c0,2.26,1.45,3.63,3.26,3.63C223.77,49.47,225.22,48.1,225.22,45.84z"/>
	<path class="st0" d="M72.3,70.74c0-4.46,3.42-7.59,8.09-7.59c2.84,0,5.08,1.04,6.51,2.9l-3.09,2.76c-0.85-1.08-1.87-1.7-3.17-1.7
		c-2.03,0-3.4,1.41-3.4,3.63s1.37,3.63,3.4,3.63c1.31,0,2.32-0.62,3.17-1.7l3.09,2.76c-1.43,1.87-3.67,2.9-6.51,2.9
		C75.72,78.33,72.3,75.2,72.3,70.74z"/>
	<path class="st0" d="M87.42,70.74c0-4.4,3.46-7.59,8.2-7.59c4.73,0,8.19,3.2,8.19,7.59s-3.46,7.59-8.19,7.59
		C90.89,78.33,87.42,75.13,87.42,70.74z M98.87,70.74c0-2.26-1.45-3.63-3.26-3.63c-1.81,0-3.26,1.37-3.26,3.63
		c0,2.26,1.45,3.63,3.26,3.63C97.42,74.37,98.87,73,98.87,70.74z"/>
	<path class="st0" d="M119.91,63.47V78h-4.02l-5.52-6.6V78h-4.77V63.47h4.02l5.52,6.6v-6.6H119.91z"/>
	<path class="st0" d="M122.28,63.47h7.16c4.85,0,8.19,2.76,8.19,7.26c0,4.5-3.34,7.26-8.19,7.26h-7.16V63.47z M129.23,74.18
		c2.05,0,3.46-1.22,3.46-3.44s-1.41-3.44-3.46-3.44h-2.05v6.89H129.23z"/>
	<path class="st0" d="M138.83,70.74c0-4.4,3.46-7.59,8.2-7.59c4.73,0,8.19,3.2,8.19,7.59s-3.46,7.59-8.19,7.59
		C142.3,78.33,138.83,75.13,138.83,70.74z M150.28,70.74c0-2.26-1.45-3.63-3.26-3.63c-1.81,0-3.26,1.37-3.26,3.63
		c0,2.26,1.45,3.63,3.26,3.63C148.83,74.37,150.28,73,150.28,70.74z"/>
	<path class="st0" d="M169.97,78l-0.04-6.62l-3.15,5.31h-2.16l-3.15-5.08V78h-4.46V63.47h4.02l4.73,7.74l4.61-7.74h4.02L174.43,78
		H169.97z"/>
	<path class="st0" d="M176.8,63.47h4.9V78h-4.9V63.47z M179.81,58.97h4.46l-4.09,3.32h-3.11L179.81,58.97z"/>
	<path class="st0" d="M198.37,63.47V78h-4.02l-5.52-6.6V78h-4.77V63.47h4.02l5.52,6.6v-6.6H198.37z"/>
	<path class="st0" d="M200.74,63.47h4.9V78h-4.9V63.47z"/>
	<path class="st0" d="M207.42,70.74c0-4.4,3.46-7.59,8.2-7.59c4.73,0,8.19,3.2,8.19,7.59s-3.46,7.59-8.19,7.59
		C210.88,78.33,207.42,75.13,207.42,70.74z M218.87,70.74c0-2.26-1.45-3.63-3.26-3.63c-1.81,0-3.26,1.37-3.26,3.63
		c0,2.26,1.45,3.63,3.26,3.63C217.42,74.37,218.87,73,218.87,70.74z"/>
</g>
</svg>
