<?xml version="1.0" encoding="utf-8"?>
<!-- Generator: Adobe Illustrator 26.3.1, SVG Export Plug-In . SVG Version: 6.00 Build 0)  -->
<svg version="1.1" id="Layer_1" xmlns="http://www.w3.org/2000/svg" xmlns:xlink="http://www.w3.org/1999/xlink" x="0px" y="0px"
	 viewBox="0 0 235.09 100" style="enable-background:new 0 0 235.09 100;" xml:space="preserve">
<style type="text/css">
	.st0{fill:#FFFFFF;}
	.st1{fill:#48B591;stroke:#FFFFFF;stroke-miterlimit:10;}
</style>
<g>
	<polygon class="st0" points="46.94,95.71 4.11,95.71 4.11,40.32 39.99,19.71 39.99,83.46 35.6,83.46 35.6,27.3 8.51,42.87 
		8.51,91.32 42.53,91.32 42.11,4.07 54.59,9.61 58.43,91.11 61.72,91.08 61.72,11.1 78.85,20.54 78.85,33.15 74.45,33.15 
		74.45,23.13 66.12,18.54 66.12,95.44 54.24,95.54 50.33,12.53 46.54,10.84 	"/>
</g>
<g>
	<rect x="12.77" y="49.8" class="st1" width="8.04" height="8.04"/>
</g>
<g>
	<rect x="22.86" y="49.8" class="st0" width="8.04" height="8.04"/>
</g>
<g>
	<rect x="12.77" y="60.02" class="st0" width="8.04" height="8.04"/>
</g>
<g>
	<rect x="22.86" y="60.02" class="st1" width="8.04" height="8.04"/>
</g>
<g>
	<rect x="12.77" y="70.07" class="st1" width="8.04" height="8.04"/>
</g>
<g>
	<rect x="22.86" y="70.07" class="st0" width="8.04" height="8.04"/>
</g>
<g>
	<polygon class="st0" points="78.88,95.52 69.65,95.52 69.65,91.13 74.49,91.13 74.49,82.27 78.88,82.27 	"/>
</g>
<g>
	<path class="st0" d="M86,38.52v14.52h-4.02l-5.52-6.6v6.6h-4.77V38.52h4.02l5.52,6.6v-6.6H86z"/>
	<path class="st0" d="M100.44,49.35v3.69H88.37V38.52h11.8v3.69h-6.99v1.7h6.14v3.53h-6.14v1.91H100.44z"/>
	<path class="st0" d="M111.93,45.39h4.25v6.14c-1.76,1.2-4.19,1.85-6.33,1.85c-4.69,0-8.11-3.13-8.11-7.59
		c0-4.46,3.42-7.59,8.22-7.59c2.86,0,5.17,1,6.64,2.8l-3.13,2.76c-0.91-1.06-1.97-1.6-3.26-1.6c-2.16,0-3.53,1.39-3.53,3.63
		c0,2.18,1.37,3.63,3.46,3.63c0.6,0,1.18-0.1,1.78-0.35V45.39z"/>
	<path class="st0" d="M117.7,45.79c0-4.4,3.46-7.59,8.2-7.59c4.73,0,8.19,3.19,8.19,7.59c0,4.4-3.46,7.59-8.19,7.59
		C121.17,53.38,117.7,50.18,117.7,45.79z M129.15,45.79c0-2.26-1.45-3.63-3.26-3.63c-1.81,0-3.26,1.37-3.26,3.63
		c0,2.26,1.45,3.63,3.26,3.63C127.7,49.42,129.15,48.05,129.15,45.79z M126.46,34.02h4.46l-4.09,3.32h-3.11L126.46,34.02z"/>
	<path class="st0" d="M135.3,45.79c0-4.46,3.42-7.59,8.09-7.59c2.84,0,5.08,1.04,6.51,2.9l-3.09,2.76c-0.85-1.08-1.87-1.7-3.17-1.7
		c-2.03,0-3.4,1.41-3.4,3.63c0,2.22,1.37,3.63,3.4,3.63c1.31,0,2.32-0.62,3.17-1.7l3.09,2.76c-1.43,1.87-3.67,2.9-6.51,2.9
		C138.72,53.38,135.3,50.25,135.3,45.79z"/>
	<path class="st0" d="M151.31,38.52h4.9v14.52h-4.9V38.52z"/>
	<path class="st0" d="M157.99,45.79c0-4.4,3.46-7.59,8.2-7.59s8.19,3.19,8.19,7.59c0,4.4-3.46,7.59-8.19,7.59
		S157.99,50.18,157.99,45.79z M169.44,45.79c0-2.26-1.45-3.63-3.26-3.63c-1.81,0-3.26,1.37-3.26,3.63c0,2.26,1.45,3.63,3.26,3.63
		C167.99,49.42,169.44,48.05,169.44,45.79z"/>
	<path class="st0" d="M175.25,51.89l1.58-3.57c1.37,0.81,3.19,1.33,4.79,1.33c1.39,0,1.89-0.29,1.89-0.79
		c0-1.83-8.03-0.35-8.03-5.77c0-2.7,2.26-4.9,6.76-4.9c1.95,0,3.96,0.41,5.48,1.27l-1.47,3.55c-1.43-0.73-2.78-1.08-4.05-1.08
		c-1.43,0-1.89,0.41-1.89,0.91c0,1.74,8.03,0.29,8.03,5.64c0,2.66-2.26,4.9-6.76,4.9C179.15,53.38,176.71,52.78,175.25,51.89z"/>
	<path class="st0" d="M196.02,38.52h7.16c4.85,0,8.19,2.76,8.19,7.26c0,4.5-3.34,7.26-8.19,7.26h-7.16V38.52z M202.97,49.23
		c2.05,0,3.46-1.22,3.46-3.44c0-2.22-1.41-3.44-3.46-3.44h-2.05v6.89H202.97z"/>
	<path class="st0" d="M212.58,45.79c0-4.4,3.46-7.59,8.2-7.59c4.73,0,8.19,3.19,8.19,7.59c0,4.4-3.46,7.59-8.19,7.59
		C216.04,53.38,212.58,50.18,212.58,45.79z M224.03,45.79c0-2.26-1.45-3.63-3.26-3.63c-1.81,0-3.26,1.37-3.26,3.63
		c0,2.26,1.45,3.63,3.26,3.63C222.58,49.42,224.03,48.05,224.03,45.79z"/>
	<path class="st0" d="M71.11,70.68c0-4.46,3.42-7.59,8.09-7.59c2.84,0,5.08,1.04,6.51,2.9l-3.09,2.76c-0.85-1.08-1.87-1.7-3.17-1.7
		c-2.03,0-3.4,1.41-3.4,3.63s1.37,3.63,3.4,3.63c1.31,0,2.32-0.62,3.17-1.7l3.09,2.76c-1.43,1.87-3.67,2.9-6.51,2.9
		C74.53,78.28,71.11,75.14,71.11,70.68z"/>
	<path class="st0" d="M86.23,70.68c0-4.4,3.46-7.59,8.2-7.59c4.73,0,8.19,3.2,8.19,7.59s-3.46,7.59-8.19,7.59
		C89.69,78.28,86.23,75.08,86.23,70.68z M97.68,70.68c0-2.26-1.45-3.63-3.26-3.63c-1.81,0-3.26,1.37-3.26,3.63
		c0,2.26,1.45,3.63,3.26,3.63C96.23,74.31,97.68,72.94,97.68,70.68z"/>
	<path class="st0" d="M118.72,63.42v14.52h-4.02l-5.52-6.6v6.6h-4.77V63.42h4.02l5.52,6.6v-6.6H118.72z"/>
	<path class="st0" d="M121.08,63.42h7.16c4.85,0,8.19,2.76,8.19,7.26c0,4.5-3.34,7.26-8.19,7.26h-7.16V63.42z M128.03,74.13
		c2.05,0,3.46-1.22,3.46-3.44s-1.41-3.44-3.46-3.44h-2.05v6.89H128.03z"/>
	<path class="st0" d="M137.64,70.68c0-4.4,3.46-7.59,8.2-7.59s8.19,3.2,8.19,7.59s-3.46,7.59-8.19,7.59S137.64,75.08,137.64,70.68z
		 M149.09,70.68c0-2.26-1.45-3.63-3.26-3.63c-1.81,0-3.26,1.37-3.26,3.63c0,2.26,1.45,3.63,3.26,3.63
		C147.64,74.31,149.09,72.94,149.09,70.68z"/>
	<path class="st0" d="M168.78,77.94l-0.04-6.62l-3.15,5.31h-2.16l-3.15-5.08v6.39h-4.46V63.42h4.02l4.73,7.74l4.61-7.74h4.02
		l0.04,14.52H168.78z"/>
	<path class="st0" d="M175.61,63.42h4.9v14.52h-4.9V63.42z M178.61,58.92h4.46l-4.09,3.32h-3.11L178.61,58.92z"/>
	<path class="st0" d="M197.18,63.42v14.52h-4.02l-5.52-6.6v6.6h-4.77V63.42h4.02l5.52,6.6v-6.6H197.18z"/>
	<path class="st0" d="M199.55,63.42h4.9v14.52h-4.9V63.42z"/>
	<path class="st0" d="M206.23,70.68c0-4.4,3.46-7.59,8.2-7.59c4.73,0,8.19,3.2,8.19,7.59s-3.46,7.59-8.19,7.59
		C209.69,78.28,206.23,75.08,206.23,70.68z M217.68,70.68c0-2.26-1.45-3.63-3.26-3.63c-1.81,0-3.26,1.37-3.26,3.63
		c0,2.26,1.45,3.63,3.26,3.63C216.23,74.31,217.68,72.94,217.68,70.68z"/>
</g>
</svg>
